<?xml version="1.0" encoding="UTF-8" standalone="no"?>
<!-- Generator: Adobe Illustrator 19.0.0, SVG Export Plug-In . SVG Version: 6.00 Build 0)  -->

<svg
   version="1.1"
   id="Warstwa_1"
   x="0px"
   y="0px"
   viewBox="0 0 566.9 566.9"
   style="enable-background:new 0 0 566.9 566.9;"
   xml:space="preserve"
   sodipodi:docname="fenix.svg"
   inkscape:version="1.2.1 (9c6d41e410, 2022-07-14)"
   xmlns:inkscape="http://www.inkscape.org/namespaces/inkscape"
   xmlns:sodipodi="http://sodipodi.sourceforge.net/DTD/sodipodi-0.dtd"
   xmlns:xlink="http://www.w3.org/1999/xlink"
   xmlns="http://www.w3.org/2000/svg"
   xmlns:svg="http://www.w3.org/2000/svg"><defs
   id="defs13"><linearGradient
     inkscape:collect="always"
     id="linearGradient372"><stop
       style="stop-color:#550000;stop-opacity:1;"
       offset="0"
       id="stop368" /><stop
       style="stop-color:#ff0000;stop-opacity:1"
       offset="1"
       id="stop370" /></linearGradient><linearGradient
     inkscape:collect="always"
     id="linearGradient300"><stop
       style="stop-color:#550000;stop-opacity:1;"
       offset="0"
       id="stop296" /><stop
       style="stop-color:#ff0000;stop-opacity:1"
       offset="1"
       id="stop298" /></linearGradient><linearGradient
     inkscape:collect="always"
     id="linearGradient528"><stop
       style="stop-color:#d40000;stop-opacity:1"
       offset="0"
       id="stop524" /><stop
       style="stop-color:#800000;stop-opacity:1"
       offset="1"
       id="stop526" /></linearGradient><linearGradient
     inkscape:collect="always"
     xlink:href="#linearGradient528"
     id="linearGradient530"
     x1="404.49429"
     y1="277.72974"
     x2="230.20096"
     y2="343.47717"
     gradientUnits="userSpaceOnUse" /><linearGradient
     inkscape:collect="always"
     xlink:href="#linearGradient300"
     id="linearGradient302"
     x1="280.64023"
     y1="353.23981"
     x2="143.24753"
     y2="190.86658"
     gradientUnits="userSpaceOnUse" /><linearGradient
     inkscape:collect="always"
     xlink:href="#linearGradient372"
     id="linearGradient374"
     x1="390.71054"
     y1="340.35922"
     x2="485.94867"
     y2="164.32481"
     gradientUnits="userSpaceOnUse" /></defs><sodipodi:namedview
   id="namedview11"
   pagecolor="#ffffff"
   bordercolor="#000000"
   borderopacity="0.25"
   inkscape:showpageshadow="2"
   inkscape:pageopacity="0.0"
   inkscape:pagecheckerboard="0"
   inkscape:deskcolor="#d1d1d1"
   showgrid="false"
   inkscape:zoom="1.2809995"
   inkscape:cx="246.29206"
   inkscape:cy="230.28893"
   inkscape:window-width="2560"
   inkscape:window-height="1377"
   inkscape:window-x="-8"
   inkscape:window-y="-8"
   inkscape:window-maximized="1"
   inkscape:current-layer="Warstwa_1" />
<style
   type="text/css"
   id="style2">
	.st0{fill:#8D1812;}
	.st1{fill:#BF1818;}
	.st2{fill:#E84516;}
</style>
<path
   id="XMLID_6_"
   class="st0"
   d="M359.3,80.7c44.9,8.1,70.1,76.3,56.4,152.4c-4.8,26.6-13.7,50.6-25.2,70.3  c9.9-12.5,19-26.9,26.7-42.8c33.6-69.6,27.5-142.1-13.6-161.9c-2.8-1.4-5.7-2.4-8.7-3.2c11.5-1.8,22.6-0.5,32.5,4.2  c41.1,19.8,47.1,92.3,13.6,161.9c-8.9,18.4-19.6,34.7-31.3,48.4c6.7-5.7,13.2-11.9,19.4-18.6c52.7-56.6,68.3-127.6,34.9-158.7  c-2.3-2.1-4.7-4-7.3-5.6c11.5,1.7,21.7,6.2,29.8,13.7c33.4,31.1,17.7,102.1-34.9,158.7c-18.4,19.8-38.9,35.2-59.2,45.5  c15.1-5.1,30.5-12.3,45.6-21.6c65.9-40.4,100-104.7,76.1-143.5c-1.6-2.7-3.5-5.1-5.6-7.4c10.7,4.7,19.3,11.8,25,21.1  c23.8,38.9-10.2,103.1-76.1,143.5c-56.7,34.8-118.5,40.6-149.8,16.7c-1.5-0.8-3-1.6-4.5-2.5c0.5,0.1,1.1,0.1,1.6,0.2  c-1.5-1.3-2.9-2.7-4.2-4.1c4.5,2,9.3,3.5,14.5,4.7c4.9-0.1,9.9-0.5,15.1-1.4c28.7-19.4,53.2-61,62.4-112.1  c13.7-76.1-11.5-144.3-56.4-152.4c-3.1-0.6-6.1-0.8-9.2-0.8C337.5,80.5,348.4,78.7,359.3,80.7z"
   style="fill:url(#linearGradient374);fill-opacity:1" />
<path
   id="XMLID_3_"
   class="st1"
   d="M 395.96484 206.80859 C 382.41498 206.29927 366.3871 211.51173 352.09961 222.19922 C 344.89962 227.59921 339.00039 233.69923 334.40039 240.19922 C 334.43372 240.35488 334.45079 240.49795 334.48242 240.65234 L 334.30078 240.19922 C 334.30078 240.19922 299.71257 270.32741 233.00391 312.32227 C 182.84323 288.42747 70.552478 236.56872 145.40039 288.69922 C 158.70038 297.89921 172.89923 306.50001 186.19922 314 C 120.29928 298.40002 39.999299 282.10082 120.19922 316.80078 C 132.59921 322.20078 145.4004 327.10039 157.90039 331.40039 C 86.400462 327.70039 9.6997018 326.90041 102.09961 348.40039 C 114.2996 351.30039 126.69923 353.70078 138.69922 355.80078 C 57.1993 379.40076 -45.299494 412.29999 69.900391 399 C 97.900363 395.8 125.69963 390.69999 150.09961 385.5 C 134.39963 391.39999 117.90077 398.19923 101.80078 405.69922 C 14.000869 446.49918 89.399289 429.39959 159.19922 410.59961 C 147.59923 417.4996 135.69921 425.10001 124.19922 433 C 50.199293 484.19995 126.99967 451.10075 189.59961 421.80078 C 177.59962 432.00077 164.89921 443.5004 153.19922 455.40039 C 82.0401 527.58832 204.61975 437.0495 242.72461 408.50781 C 255.63795 411.73757 271.52825 414.17357 291.09961 415.5 C 348.8137 419.3996 369.17592 360.7431 373.58984 345.00195 C 374.28822 343.96301 374.69922 342.66215 374.69922 341 C 374.59922 298.40004 407.99926 263.40039 450.19922 260.90039 C 444.09922 251.4004 435.99999 243.2996 426.5 237.09961 C 426.8 230.19962 424.99961 223.69999 421.09961 218.5 C 415.54336 211.06251 406.50363 207.20474 395.96484 206.80859 z "
   style="fill-opacity:1;fill:url(#linearGradient530)" />
<path
   id="XMLID_5_"
   class="st2"
   d="M-208.3-84.8c11.1-9.4,19.6-20.7,25.5-33c-41.2,23.6-94.6,15.3-126.3-22.2  c-26.4-31.2-30.4-73.8-13.8-108.3c-5.2,3-10.2,6.5-15,10.5c-42.3,35.8-47.5,99-11.7,141.3C-313.8-54.3-250.6-49.1-208.3-84.8z" />


<path
   id="XMLID_1_"
   class="st0"
   d="M215.8,87.6c-42.2,17.3-52.5,89.3-23.1,160.8c6.3,15.4,14,29.5,22.5,41.9  c1.5,2.1-1.5,4.5-3.2,2.6c-5.2-5.4-10.1-11.2-14.9-17.4c-47.5-61-56.8-133.1-20.8-161.1v0c1.8-1.4,0.5-4.2-1.7-3.7  c-7.9,1.7-15.1,4.9-21.3,9.7c-36,28-26.7,100.1,20.8,161.1c6.8,8.7,14,16.7,21.4,24c1.8,1.8-0.5,4.7-2.6,3.2  c-0.3-0.2-0.6-0.4-0.9-0.6c-63.4-44.2-93.6-110.4-67.5-147.8l0,0c1.3-1.8-0.8-4.1-2.7-3c-7,3.9-13,9.1-17.5,15.6  c-26.1,37.4,4.1,103.5,67.5,147.8c13.6,9.5,27.7,17.2,41.6,23.1c2.4,1,1.2,4.6-1.3,4c-7.3-1.8-14.6-4-22-6.6  C117.1,315.7,70.2,260,85.4,217l0,0c0.7-2.1-1.9-3.8-3.5-2.2c-5.7,5.7-10.1,12.3-12.7,19.7c-15.1,43,31.7,98.7,104.6,124.3  c62.7,22.1,124.3,14.7,149.9-15.1c0.1-0.1,0.1-0.1,0.2-0.2c0.4-0.4,1-1.1,1.7-1.9c1.2-1.6-0.4-3.9-2.3-3.3  c-42.5,13.9-87.8-43.7-106.6-89.6c-29.4-71.5-19.1-143.5,23.1-160.8l0,0c2.1-0.8,1.6-3.9-0.7-4C230.9,83.4,223.2,84.6,215.8,87.6z"
   style="fill:url(#linearGradient302);fill-opacity:1" />
</svg>
